<mxfile host="app.diagrams.net" agent="Mozilla/5.0 (X11; Ubuntu; Linux x86_64; rv:136.0) Gecko/20100101 Firefox/136.0" version="28.0.9">
  <diagram name="Page-1" id="xIOkTCL3K24IWR9tix57">
    <mxGraphModel dx="655" dy="593" grid="1" gridSize="10" guides="1" tooltips="1" connect="1" arrows="1" fold="1" page="1" pageScale="1" pageWidth="827" pageHeight="1169" math="0" shadow="0">
      <root>
        <mxCell id="0" />
        <mxCell id="1" style="" parent="0" />
        <mxCell id="3SZMAM52sG9_Gdmyh299-129" value="" style="rounded=1;whiteSpace=wrap;html=1;shadow=0;treeFolding=0;treeMoving=0;fixDash=0;collapsible=0;recursiveResize=1;expand=1;backgroundOutline=0;movableLabel=0;autosize=0;fixedWidth=0;comic=0;" parent="1" vertex="1">
          <mxGeometry x="320" y="840" width="420" height="260" as="geometry" />
        </mxCell>
        <mxCell id="3SZMAM52sG9_Gdmyh299-130" value="" style="rounded=1;whiteSpace=wrap;html=1;shadow=0;treeFolding=0;treeMoving=0;fixDash=0;collapsible=0;recursiveResize=1;expand=1;backgroundOutline=0;movableLabel=0;autosize=0;fixedWidth=0;comic=0;" parent="1" vertex="1">
          <mxGeometry x="330" y="850" width="400" height="230" as="geometry" />
        </mxCell>
        <mxCell id="3SZMAM52sG9_Gdmyh299-131" value="" style="rounded=1;whiteSpace=wrap;html=1;shadow=0;glass=0;perimeterSpacing=1;" parent="1" vertex="1">
          <mxGeometry x="337.5" y="860" width="385" height="200" as="geometry" />
        </mxCell>
        <mxCell id="3SZMAM52sG9_Gdmyh299-132" style="edgeStyle=orthogonalEdgeStyle;rounded=0;orthogonalLoop=1;jettySize=auto;html=1;exitX=0.55;exitY=0.95;exitDx=0;exitDy=0;exitPerimeter=0;entryX=0.5;entryY=0;entryDx=0;entryDy=0;shadow=0;" parent="1" source="3SZMAM52sG9_Gdmyh299-133" target="3SZMAM52sG9_Gdmyh299-136" edge="1">
          <mxGeometry relative="1" as="geometry">
            <Array as="points">
              <mxPoint x="603" y="810" />
              <mxPoint x="390" y="810" />
            </Array>
          </mxGeometry>
        </mxCell>
        <mxCell id="3SZMAM52sG9_Gdmyh299-133" value="" style="ellipse;shape=cloud;whiteSpace=wrap;html=1;rotation=0;shadow=0;" parent="1" vertex="1">
          <mxGeometry x="390.87" y="500" width="386.25" height="307.5" as="geometry" />
        </mxCell>
        <mxCell id="3SZMAM52sG9_Gdmyh299-134" style="edgeStyle=orthogonalEdgeStyle;rounded=0;orthogonalLoop=1;jettySize=auto;html=1;exitX=0.5;exitY=1;exitDx=0;exitDy=0;entryX=0;entryY=0.5;entryDx=0;entryDy=0;shadow=0;" parent="1" source="3SZMAM52sG9_Gdmyh299-136" target="3SZMAM52sG9_Gdmyh299-141" edge="1">
          <mxGeometry relative="1" as="geometry" />
        </mxCell>
        <mxCell id="3SZMAM52sG9_Gdmyh299-135" style="edgeStyle=orthogonalEdgeStyle;rounded=0;orthogonalLoop=1;jettySize=auto;html=1;exitX=1;exitY=0.5;exitDx=0;exitDy=0;entryX=0;entryY=0.5;entryDx=0;entryDy=0;shadow=0;" parent="1" source="3SZMAM52sG9_Gdmyh299-136" target="3SZMAM52sG9_Gdmyh299-139" edge="1">
          <mxGeometry relative="1" as="geometry" />
        </mxCell>
        <mxCell id="3SZMAM52sG9_Gdmyh299-136" value="Prometheus" style="html=1;whiteSpace=wrap;shadow=0;" parent="1" vertex="1">
          <mxGeometry x="350" y="900" width="80" height="50" as="geometry" />
        </mxCell>
        <mxCell id="3SZMAM52sG9_Gdmyh299-137" style="edgeStyle=orthogonalEdgeStyle;rounded=0;orthogonalLoop=1;jettySize=auto;html=1;exitX=1;exitY=0.25;exitDx=0;exitDy=0;entryX=0;entryY=0.75;entryDx=0;entryDy=0;shadow=0;" parent="1" source="3SZMAM52sG9_Gdmyh299-139" target="3SZMAM52sG9_Gdmyh299-142" edge="1">
          <mxGeometry relative="1" as="geometry" />
        </mxCell>
        <mxCell id="3SZMAM52sG9_Gdmyh299-138" style="edgeStyle=orthogonalEdgeStyle;rounded=0;orthogonalLoop=1;jettySize=auto;html=1;exitX=1;exitY=0.75;exitDx=0;exitDy=0;entryX=0;entryY=0.25;entryDx=0;entryDy=0;shadow=0;" parent="1" source="3SZMAM52sG9_Gdmyh299-139" target="3SZMAM52sG9_Gdmyh299-144" edge="1">
          <mxGeometry relative="1" as="geometry" />
        </mxCell>
        <mxCell id="Zg09eMq_pX1P9frFTXm6-2" style="edgeStyle=orthogonalEdgeStyle;rounded=0;orthogonalLoop=1;jettySize=auto;html=1;exitX=0.5;exitY=1;exitDx=0;exitDy=0;entryX=0.5;entryY=0;entryDx=0;entryDy=0;shadow=0;" parent="1" source="3SZMAM52sG9_Gdmyh299-139" target="Zg09eMq_pX1P9frFTXm6-1" edge="1">
          <mxGeometry relative="1" as="geometry" />
        </mxCell>
        <mxCell id="3SZMAM52sG9_Gdmyh299-139" value="&lt;div&gt;Grafana&lt;/div&gt;" style="html=1;whiteSpace=wrap;shadow=0;" parent="1" vertex="1">
          <mxGeometry x="470" y="900" width="80" height="50" as="geometry" />
        </mxCell>
        <mxCell id="3SZMAM52sG9_Gdmyh299-141" value="TSDB" style="shape=cylinder;whiteSpace=wrap;html=1;boundedLbl=1;backgroundOutline=1;shadow=0;" parent="1" vertex="1">
          <mxGeometry x="414" y="962.5" width="60" height="80" as="geometry" />
        </mxCell>
        <mxCell id="3SZMAM52sG9_Gdmyh299-142" value="&lt;div&gt;Dashboard&lt;/div&gt;" style="shape=hexagon;perimeter=hexagonPerimeter2;whiteSpace=wrap;html=1;fixedSize=1;shadow=0;" parent="1" vertex="1">
          <mxGeometry x="580" y="867.5" width="120" height="40" as="geometry" />
        </mxCell>
        <mxCell id="3SZMAM52sG9_Gdmyh299-143" style="edgeStyle=orthogonalEdgeStyle;rounded=0;orthogonalLoop=1;jettySize=auto;html=1;exitX=1;exitY=0.5;exitDx=0;exitDy=0;shadow=0;" parent="1" source="3SZMAM52sG9_Gdmyh299-144" target="3SZMAM52sG9_Gdmyh299-151" edge="1">
          <mxGeometry relative="1" as="geometry">
            <Array as="points">
              <mxPoint x="780" y="965" />
              <mxPoint x="780" y="1008" />
            </Array>
          </mxGeometry>
        </mxCell>
        <mxCell id="3SZMAM52sG9_Gdmyh299-144" value="&lt;div&gt;Alertas&lt;/div&gt;" style="shape=hexagon;perimeter=hexagonPerimeter2;whiteSpace=wrap;html=1;fixedSize=1;shadow=0;" parent="1" vertex="1">
          <mxGeometry x="580" y="945" width="120" height="40" as="geometry" />
        </mxCell>
        <mxCell id="3SZMAM52sG9_Gdmyh299-145" value="&lt;div&gt;Hardware&lt;/div&gt;" style="text;html=1;align=center;verticalAlign=middle;resizable=0;points=[];autosize=1;strokeColor=none;fillColor=none;shadow=0;" parent="1" vertex="1">
          <mxGeometry x="544" y="1080" width="80" height="30" as="geometry" />
        </mxCell>
        <mxCell id="3SZMAM52sG9_Gdmyh299-146" value="Host OS" style="text;html=1;align=center;verticalAlign=middle;resizable=0;points=[];autosize=1;strokeColor=none;fillColor=none;shadow=0;" parent="1" vertex="1">
          <mxGeometry x="534" y="1060" width="70" height="30" as="geometry" />
        </mxCell>
        <mxCell id="3SZMAM52sG9_Gdmyh299-147" value="&lt;div&gt;&lt;b&gt;Visualização&lt;/b&gt;&lt;/div&gt;" style="html=1;dashed=0;whiteSpace=wrap;shape=mxgraph.dfd.start;shadow=0;" parent="1" vertex="1">
          <mxGeometry x="770" y="872.5" width="110" height="30" as="geometry" />
        </mxCell>
        <mxCell id="3SZMAM52sG9_Gdmyh299-148" style="edgeStyle=orthogonalEdgeStyle;rounded=0;orthogonalLoop=1;jettySize=auto;html=1;exitX=1;exitY=0.5;exitDx=0;exitDy=0;entryX=0;entryY=0.5;entryDx=0;entryDy=0;entryPerimeter=0;shadow=0;" parent="1" source="3SZMAM52sG9_Gdmyh299-142" target="3SZMAM52sG9_Gdmyh299-147" edge="1">
          <mxGeometry relative="1" as="geometry" />
        </mxCell>
        <mxCell id="3SZMAM52sG9_Gdmyh299-149" value="&lt;div&gt;Docker Engine&lt;/div&gt;" style="text;html=1;align=center;verticalAlign=middle;resizable=0;points=[];autosize=1;strokeColor=none;fillColor=none;shadow=0;" parent="1" vertex="1">
          <mxGeometry x="524" y="1040" width="100" height="30" as="geometry" />
        </mxCell>
        <mxCell id="3SZMAM52sG9_Gdmyh299-150" value="&lt;div&gt;&lt;font style=&quot;font-size: 9px;&quot;&gt;Agent&lt;/font&gt;&lt;/div&gt;" style="ellipse;whiteSpace=wrap;html=1;aspect=fixed;shadow=0;" parent="1" vertex="1">
          <mxGeometry x="484.62" y="663.75" width="40" height="40" as="geometry" />
        </mxCell>
        <mxCell id="3SZMAM52sG9_Gdmyh299-151" value="" style="rounded=1;whiteSpace=wrap;html=1;shadow=0;glass=0;perimeterSpacing=1;" parent="1" vertex="1">
          <mxGeometry x="770" y="933.75" width="110" height="150" as="geometry" />
        </mxCell>
        <mxCell id="3SZMAM52sG9_Gdmyh299-152" value="Email" style="html=1;dashed=0;whiteSpace=wrap;shape=mxgraph.dfd.start;shadow=0;" parent="1" vertex="1">
          <mxGeometry x="785" y="963.75" width="80" height="30" as="geometry" />
        </mxCell>
        <mxCell id="3SZMAM52sG9_Gdmyh299-153" value="&lt;div&gt;Aplicativos Terceiros&lt;/div&gt;" style="html=1;dashed=0;whiteSpace=wrap;shape=mxgraph.dfd.start;shadow=0;" parent="1" vertex="1">
          <mxGeometry x="785" y="1003.75" width="80" height="30" as="geometry" />
        </mxCell>
        <mxCell id="3SZMAM52sG9_Gdmyh299-154" value="&lt;div&gt;etc.&lt;/div&gt;" style="html=1;dashed=0;whiteSpace=wrap;shape=mxgraph.dfd.start;shadow=0;" parent="1" vertex="1">
          <mxGeometry x="785" y="1043.75" width="80" height="30" as="geometry" />
        </mxCell>
        <mxCell id="3SZMAM52sG9_Gdmyh299-155" value="&lt;div&gt;&lt;b&gt;Notificações&lt;/b&gt;&lt;/div&gt;" style="text;html=1;align=center;verticalAlign=middle;resizable=0;points=[];autosize=1;strokeColor=none;fillColor=none;shadow=0;" parent="1" vertex="1">
          <mxGeometry x="780" y="933.75" width="90" height="30" as="geometry" />
        </mxCell>
        <mxCell id="3SZMAM52sG9_Gdmyh299-156" value="&lt;div&gt;&lt;font style=&quot;font-size: 9px;&quot;&gt;Agent&lt;/font&gt;&lt;/div&gt;" style="ellipse;whiteSpace=wrap;html=1;aspect=fixed;shadow=0;" parent="1" vertex="1">
          <mxGeometry x="554.87" y="608.75" width="40" height="40" as="geometry" />
        </mxCell>
        <mxCell id="3SZMAM52sG9_Gdmyh299-157" value="&lt;div&gt;&lt;font style=&quot;font-size: 9px;&quot;&gt;Agent&lt;/font&gt;&lt;/div&gt;" style="ellipse;whiteSpace=wrap;html=1;aspect=fixed;shadow=0;" parent="1" vertex="1">
          <mxGeometry x="624.87" y="630" width="40" height="40" as="geometry" />
        </mxCell>
        <mxCell id="3SZMAM52sG9_Gdmyh299-158" style="edgeStyle=orthogonalEdgeStyle;rounded=0;orthogonalLoop=1;jettySize=auto;html=1;exitX=0.5;exitY=1;exitDx=0;exitDy=0;entryX=0.5;entryY=0;entryDx=0;entryDy=0;shadow=0;" parent="1" source="3SZMAM52sG9_Gdmyh299-159" target="3SZMAM52sG9_Gdmyh299-150" edge="1">
          <mxGeometry relative="1" as="geometry" />
        </mxCell>
        <mxCell id="3SZMAM52sG9_Gdmyh299-159" value="Computador" style="rhombus;whiteSpace=wrap;html=1;shadow=0;" parent="1" vertex="1">
          <mxGeometry x="460.87" y="580" width="87.5" height="50" as="geometry" />
        </mxCell>
        <mxCell id="3SZMAM52sG9_Gdmyh299-160" style="edgeStyle=orthogonalEdgeStyle;rounded=0;orthogonalLoop=1;jettySize=auto;html=1;exitX=0;exitY=0.5;exitDx=0;exitDy=0;entryX=0.5;entryY=0;entryDx=0;entryDy=0;shadow=0;" parent="1" source="3SZMAM52sG9_Gdmyh299-161" target="3SZMAM52sG9_Gdmyh299-166" edge="1">
          <mxGeometry relative="1" as="geometry" />
        </mxCell>
        <mxCell id="3SZMAM52sG9_Gdmyh299-161" value="&lt;div&gt;Servidor&lt;/div&gt;" style="rhombus;whiteSpace=wrap;html=1;shadow=0;" parent="1" vertex="1">
          <mxGeometry x="684.87" y="663.75" width="67.5" height="50" as="geometry" />
        </mxCell>
        <mxCell id="3SZMAM52sG9_Gdmyh299-162" style="edgeStyle=orthogonalEdgeStyle;rounded=0;orthogonalLoop=1;jettySize=auto;html=1;exitX=0.5;exitY=1;exitDx=0;exitDy=0;entryX=1;entryY=0.5;entryDx=0;entryDy=0;shadow=0;" parent="1" source="3SZMAM52sG9_Gdmyh299-163" target="3SZMAM52sG9_Gdmyh299-157" edge="1">
          <mxGeometry relative="1" as="geometry" />
        </mxCell>
        <mxCell id="3SZMAM52sG9_Gdmyh299-163" value="&lt;div&gt;Smartphone&lt;/div&gt;" style="rhombus;whiteSpace=wrap;html=1;shadow=0;" parent="1" vertex="1">
          <mxGeometry x="640.87" y="558.75" width="89.75" height="50" as="geometry" />
        </mxCell>
        <mxCell id="3SZMAM52sG9_Gdmyh299-164" style="edgeStyle=orthogonalEdgeStyle;rounded=0;orthogonalLoop=1;jettySize=auto;html=1;exitX=0.5;exitY=1;exitDx=0;exitDy=0;entryX=0.5;entryY=0;entryDx=0;entryDy=0;shadow=0;" parent="1" source="3SZMAM52sG9_Gdmyh299-165" target="3SZMAM52sG9_Gdmyh299-156" edge="1">
          <mxGeometry relative="1" as="geometry" />
        </mxCell>
        <mxCell id="3SZMAM52sG9_Gdmyh299-165" value="IoT" style="rhombus;whiteSpace=wrap;html=1;shadow=0;" parent="1" vertex="1">
          <mxGeometry x="554.87" y="540" width="40" height="40" as="geometry" />
        </mxCell>
        <mxCell id="3SZMAM52sG9_Gdmyh299-166" value="&lt;div&gt;&lt;font style=&quot;font-size: 9px;&quot;&gt;Agent&lt;/font&gt;&lt;/div&gt;" style="ellipse;whiteSpace=wrap;html=1;aspect=fixed;shadow=0;" parent="1" vertex="1">
          <mxGeometry x="640.87" y="713.75" width="40" height="40" as="geometry" />
        </mxCell>
        <mxCell id="3SZMAM52sG9_Gdmyh299-167" style="edgeStyle=orthogonalEdgeStyle;rounded=0;orthogonalLoop=1;jettySize=auto;html=1;exitX=0;exitY=1;exitDx=0;exitDy=0;entryX=0.585;entryY=0.943;entryDx=0;entryDy=0;entryPerimeter=0;shadow=0;" parent="1" source="3SZMAM52sG9_Gdmyh299-157" target="3SZMAM52sG9_Gdmyh299-133" edge="1">
          <mxGeometry relative="1" as="geometry" />
        </mxCell>
        <mxCell id="3SZMAM52sG9_Gdmyh299-168" style="edgeStyle=orthogonalEdgeStyle;rounded=0;orthogonalLoop=1;jettySize=auto;html=1;exitX=1;exitY=1;exitDx=0;exitDy=0;entryX=0.388;entryY=0.888;entryDx=0;entryDy=0;entryPerimeter=0;shadow=0;" parent="1" source="3SZMAM52sG9_Gdmyh299-150" target="3SZMAM52sG9_Gdmyh299-133" edge="1">
          <mxGeometry relative="1" as="geometry">
            <Array as="points">
              <mxPoint x="518.87" y="720" />
              <mxPoint x="540.87" y="720" />
            </Array>
          </mxGeometry>
        </mxCell>
        <mxCell id="3SZMAM52sG9_Gdmyh299-169" style="edgeStyle=orthogonalEdgeStyle;rounded=0;orthogonalLoop=1;jettySize=auto;html=1;exitX=0;exitY=1;exitDx=0;exitDy=0;entryX=0.652;entryY=0.933;entryDx=0;entryDy=0;entryPerimeter=0;shadow=0;" parent="1" source="3SZMAM52sG9_Gdmyh299-166" target="3SZMAM52sG9_Gdmyh299-133" edge="1">
          <mxGeometry relative="1" as="geometry" />
        </mxCell>
        <mxCell id="3SZMAM52sG9_Gdmyh299-170" style="edgeStyle=orthogonalEdgeStyle;rounded=0;orthogonalLoop=1;jettySize=auto;html=1;exitX=0.5;exitY=1;exitDx=0;exitDy=0;entryX=0.474;entryY=0.94;entryDx=0;entryDy=0;entryPerimeter=0;shadow=0;" parent="1" source="3SZMAM52sG9_Gdmyh299-156" target="3SZMAM52sG9_Gdmyh299-133" edge="1">
          <mxGeometry relative="1" as="geometry" />
        </mxCell>
        <mxCell id="3SZMAM52sG9_Gdmyh299-171" value="&lt;b&gt;Rede&lt;/b&gt;" style="text;html=1;align=center;verticalAlign=middle;resizable=0;points=[];autosize=1;strokeColor=none;fillColor=none;shadow=0;" parent="1" vertex="1">
          <mxGeometry x="440.87" y="713.75" width="50" height="30" as="geometry" />
        </mxCell>
        <mxCell id="Zg09eMq_pX1P9frFTXm6-1" value="SQLite" style="shape=cylinder;whiteSpace=wrap;html=1;boundedLbl=1;backgroundOutline=1;shadow=0;" parent="1" vertex="1">
          <mxGeometry x="494.87" y="975" width="49" height="67.5" as="geometry" />
        </mxCell>
      </root>
    </mxGraphModel>
  </diagram>
</mxfile>
